<?xml version="1.0" encoding="UTF-8" standalone="no"?>
<!-- Created with Inkscape (http://www.inkscape.org/) -->

<svg
   width="1280"
   height="720"
   viewBox="0 0 338.66666 190.50001"
   version="1.1"
   id="svg159"
   inkscape:version="1.1.2 (b8e25be8, 2022-02-05)"
   sodipodi:docname="splash_ink_bg_1.svg"
   xmlns:inkscape="http://www.inkscape.org/namespaces/inkscape"
   xmlns:sodipodi="http://sodipodi.sourceforge.net/DTD/sodipodi-0.dtd"
   xmlns="http://www.w3.org/2000/svg"
   xmlns:svg="http://www.w3.org/2000/svg">
  <sodipodi:namedview
     id="namedview161"
     pagecolor="#505050"
     bordercolor="#eeeeee"
     borderopacity="1"
     inkscape:pageshadow="0"
     inkscape:pageopacity="0"
     inkscape:pagecheckerboard="0"
     inkscape:document-units="px"
     showgrid="false"
     units="px"
     inkscape:zoom="0.55589226"
     inkscape:cx="450.62689"
     inkscape:cy="381.36887"
     inkscape:window-width="1920"
     inkscape:window-height="1052"
     inkscape:window-x="0"
     inkscape:window-y="28"
     inkscape:window-maximized="0"
     inkscape:current-layer="layer1" />
  <defs
     id="defs156" />
  <g
     inkscape:label="圖層 1"
     inkscape:groupmode="layer"
     id="layer1">
    <path
       style="fill:#000000;stroke-width:0.169659"
       d="m 353.99577,186.53996 c -0.92145,-0.288 -1.67867,-1.08309 -1.28308,-1.3472 0.3154,-0.21059 1.01933,0.16573 1.58732,0.84854 0.28927,0.34776 0.53838,0.66452 0.55355,0.70385 0.0152,0.0393 -0.37083,-0.0529 -0.85779,-0.20519 z m -7.65252,-21.09018 c 0.059,0.27153 0.0189,0.64437 -0.0891,0.82854 -0.17033,0.29003 -0.14959,0.38687 0.15516,0.72368 0.40642,0.44922 0.41259,0.91743 0.0206,1.55728 -0.13587,0.22184 -0.26263,0.53766 -0.28162,0.70182 -0.0266,0.22975 -0.0603,0.23297 -0.14697,0.0134 -0.0618,-0.15657 -0.29529,-0.34751 -0.51872,-0.42441 -0.22342,-0.0769 -0.47551,-0.31935 -0.56018,-0.53876 -0.0847,-0.21941 -0.2345,-0.40229 -0.33295,-0.40641 -0.30864,-0.0134 -0.3838,-0.49674 -0.1221,-0.78538 0.26943,-0.29707 0.14773,-0.54791 -0.56358,-1.16165 -0.41853,-0.36111 -0.57767,-0.67841 -0.33519,-0.66824 0.0919,0.005 0.42088,0.33995 0.73087,0.74688 0.30995,0.40692 0.6466,0.74334 0.74808,0.7476 0.37204,0.0157 0.45904,-0.68019 0.16738,-1.33866 -0.46847,-1.05767 -0.57503,-1.48212 -0.49171,-1.95815 0.0723,-0.41345 0.10686,-0.44253 0.40595,-0.34287 0.3398,0.1132 1.01792,1.40021 1.21439,2.30479 z m -14.2016,-36.70114 c 0.28379,1.31421 0.0996,2.13376 -0.78592,3.49553 -0.0941,0.14475 -0.0737,0.71787 0.0464,1.32544 0.27527,1.38915 0.15612,1.1545 -1.01824,-2.00503 -0.92178,-2.48002 -0.98857,-2.74629 -1.18508,-4.72347 -0.12609,-1.26944 -0.33768,-2.42756 -0.53664,-2.93831 -0.92046,-2.36287 -4.91683,-8.31011 -6.41834,-9.55154 -0.36327,-0.30035 -0.74428,-0.8017 -0.88356,-1.16266 -0.25545,-0.66196 -0.93535,-1.46069 -1.4259,-1.67513 -0.15725,-0.0687 -0.51033,-0.47395 -0.78468,-0.90047 -0.29159,-0.45336 -0.81498,-0.95773 -1.25985,-1.21414 -0.41861,-0.24122 -0.90533,-0.66033 -1.08163,-0.93126 -0.17633,-0.27098 -0.72118,-0.74416 -1.21081,-1.0515 -0.4896,-0.30737 -1.09135,-0.86226 -1.33722,-1.23309 -0.24583,-0.37083 -0.55828,-0.75886 -0.69426,-0.86229 -0.13602,-0.10339 -0.91312,-0.89044 -1.72687,-1.74892 -0.81377,-0.85845 -1.50068,-1.56083 -1.52643,-1.56081 -0.78498,4e-4 -1.00504,-0.12408 -1.6106,-0.91262 -0.36583,-0.47632 -1.15573,-1.370883 -1.75536,-1.987914 -0.59963,-0.617008 -1.27204,-1.324186 -1.49424,-1.571475 -0.84304,-0.938251 -1.70408,-1.585044 -3.14805,-2.364767 -0.82072,-0.44318 -1.97851,-1.201092 -2.57283,-1.684265 -0.99995,-0.812888 -2.22325,-1.56864 -5.34883,-3.304549 -1.68135,-0.933781 -3.22708,-1.344048 -3.92872,-1.042688 -0.30838,0.132414 -0.88986,0.240996 -1.29219,0.241214 -1.34795,7.84e-4 -2.5045,-1.592291 -2.35191,-3.239614 0.10063,-1.085557 0.27514,-1.41697 1.00135,-1.900991 1.06105,-0.707177 1.61101,-0.561272 3.13705,0.832107 1.36768,1.248749 2.88006,2.189884 4.7514,2.956675 0.58369,0.239154 1.68444,0.93782 2.4461,1.552557 0.76167,0.614724 1.78305,1.278007 2.26973,1.473966 1.08638,0.437368 1.7555,0.999039 2.58464,2.16954 0.70763,0.998952 1.6685,2.129648 3.00743,3.538953 0.48968,0.515433 1.19272,1.267062 1.56229,1.670306 0.60994,0.665496 0.71045,0.70745 1.08924,0.454555 0.80179,-0.535324 1.8097,-0.234356 2.1476,0.641296 0.16831,0.436135 0.11352,1.482534 -0.097,1.854374 -0.11588,0.20454 -0.096,0.38946 0.0633,0.58753 0.12787,0.15898 0.2794,0.19844 0.33696,0.0877 0.0655,-0.12588 0.11838,-0.0593 0.1412,0.17715 0.0486,0.50489 2.74191,2.81669 3.6823,3.1608 0.50215,0.18377 0.90847,0.53153 1.4073,1.20462 0.436,0.58832 0.85514,0.9707 1.10796,1.01082 0.28108,0.0446 0.60447,0.37244 1.0472,1.0617 0.44547,0.69354 0.85046,1.10282 1.33006,1.34418 0.58891,0.2963 0.74386,0.48371 1.06162,1.28376 0.32568,0.82003 0.45265,0.96763 1.01881,1.1843 0.8848,0.33861 1.11693,0.57989 1.52108,1.58088 0.23809,0.58975 0.91343,1.53628 2.13551,2.9931 2.02492,2.41388 2.75173,3.559 4.55126,7.17048 1.86571,3.74426 1.85735,3.72565 2.02756,4.51394 z m 10.58611,30.07163 c -0.0823,-0.0865 -0.15315,-0.27024 -0.15767,-0.40855 -0.004,-0.13835 0.0628,-0.0675 0.14947,0.15712 0.0867,0.22472 0.0903,0.33786 0.01,0.25143 z m -1.41182,-2.39723 c -0.61959,-0.99935 -1.58665,-2.67378 -2.14905,-3.72093 -2.02393,-3.76842 -4.70613,-7.69825 -7.99016,-11.70681 -2.66153,-3.24873 -4.18116,-4.66288 -5.57677,-5.18967 l -0.95697,-0.36123 -0.18198,0.55646 c -0.28888,0.88313 -0.72054,1.02962 -1.85086,0.62803 -0.75613,-0.26863 -0.99683,-0.4369 -0.93248,-0.6517 0.0477,-0.15929 -0.0347,-0.58311 -0.18299,-0.94188 l -0.26974,-0.6523 0.0917,0.65813 c 0.1335,0.95823 0.45794,2.52934 0.7184,3.47916 0.15947,0.58152 0.1655,0.96003 0.0203,1.27453 -0.19362,0.41935 -0.15045,0.59939 0.68983,2.87694 3.08856,8.37161 6.1296,17.16252 8.16824,23.61238 l 0.89511,2.83199 0.74934,0.44085 0.74934,0.44084 0.48937,1.87951 c 0.56966,2.18767 1.16265,3.82556 1.61706,4.46621 0.30296,0.42717 0.29853,0.48569 -0.077,1.01998 -0.46099,0.65599 -0.46701,0.79859 -0.0922,2.18013 0.25347,0.93402 0.38198,1.13451 1.41314,2.20471 1.04781,1.08749 1.17961,1.2959 1.72848,2.7331 0.37089,0.97119 0.58114,1.74819 0.55951,2.06769 -0.0434,0.63772 0.30959,2.3128 0.67534,3.20685 0.22314,0.5455 0.2302,0.78552 0.0371,1.25985 -0.30201,0.74148 -1.00275,1.21603 -1.62566,1.10092 -0.30767,-0.0568 -0.69428,0.0525 -1.06808,0.30206 -0.46711,0.31188 -0.74668,0.35272 -1.37924,0.20151 -0.43636,-0.10425 -0.87637,-0.13435 -0.97783,-0.0665 -0.35439,0.23662 -1.7198,-0.30248 -2.34293,-0.92499 -0.34554,-0.34523 -0.9125,-1.19136 -1.25997,-1.88033 -1.24919,-2.47708 -2.25103,-3.23687 -6.34238,-4.81002 -4.99761,-1.92163 -15.83254,-5.60917 -15.93001,-5.42159 -0.0485,0.0939 -0.22702,0.0523 -0.39617,-0.0923 -0.16916,-0.14462 -0.60131,-0.38123 -0.96035,-0.52587 -0.359,-0.14461 -0.55386,-0.26343 -0.43297,-0.26398 0.34743,-9.5e-4 0.19737,-0.17108 -0.65628,-0.74146 -0.43747,-0.2923 -1.2036,-0.83187 -1.70249,-1.19905 -0.49892,-0.36718 -1.05029,-0.63036 -1.22527,-0.58484 -0.40962,0.10655 -1.06232,-0.32324 -1.08048,-0.71146 -0.0202,-0.43122 0.35212,-0.6186 1.20738,-0.60763 0.8983,0.0121 1.18097,0.26646 1.01446,0.91508 -0.11719,0.45666 -0.10128,0.49543 0.33864,0.82323 0.25391,0.18919 1.04182,0.78902 1.75089,1.33298 0.84422,0.64761 1.72569,1.12329 2.55357,1.37805 0.6954,0.21395 4.81157,1.59496 9.14709,3.06882 4.33552,1.47388 7.89253,2.58769 7.9045,2.47512 0.0268,-0.25242 -0.88644,-0.94696 -2.17651,-1.65535 -0.53502,-0.2938 -1.51027,-0.84502 -2.16719,-1.22496 -4.89027,-2.82834 -5.26134,-3.00924 -5.64664,-2.75295 -0.42246,0.28104 -1.27835,-0.0243 -1.47161,-0.5252 -0.46398,-1.20235 1.12376,-1.6507 1.64742,-0.46519 0.13437,0.30418 0.81478,0.77513 2.08499,1.4431 1.03704,0.54535 2.24015,1.21724 2.67355,1.49307 0.4334,0.27584 1.17746,0.67184 1.65344,0.88004 0.47596,0.20817 1.49279,0.77199 2.25963,1.25294 1.53611,0.96343 5.00053,2.29503 5.35509,2.05832 0.18664,-0.12467 0.14372,-0.36022 -0.25188,-1.38555 l -0.47677,-1.23545 -1.66975,-0.97957 c -1.55287,-0.91103 -5.8727,-3.60468 -6.2779,-3.91469 -0.54428,-0.41634 0.17679,-0.0597 2.27465,1.12507 3.03464,1.71381 5.6768,3.00503 6.15,3.00554 0.42255,3.8e-4 1.03357,-0.34258 0.95819,-0.53791 -0.0273,-0.071 -0.31633,-0.50239 -0.64206,-0.95865 -0.47022,-0.65866 -0.79879,-0.90339 -1.59478,-1.18788 -0.71195,-0.25444 -1.43693,-0.75331 -2.50137,-1.72117 -1.77589,-1.61478 -4.6898,-3.92909 -5.49952,-4.36785 -0.31622,-0.17134 -1.34056,-0.83809 -2.27633,-1.48166 -3.18712,-2.19191 -9.78966,-5.58021 -11.80992,-6.06059 -1.52109,-0.3617 -1.90439,-0.75944 -0.4791,-0.49716 0.63404,0.11657 1.8543,0.53237 2.71169,0.92378 2.48714,1.13534 4.74079,2.09216 5.22076,2.2165 0.56125,0.14551 -1.96644,-1.5026 -5.85187,-3.81522 -0.17253,-0.10274 -0.27672,-0.21141 -0.23154,-0.24158 0.083,-0.0554 4.28868,2.43132 6.97654,4.12531 1.43718,0.90577 4.66005,2.08147 5.02954,1.83477 0.26546,-0.17724 0.0453,-1.08715 -0.32099,-1.32717 -0.17092,-0.11201 -1.30444,-0.64997 -2.51896,-1.1956 -2.0151,-0.90534 -4.85868,-2.34045 -5.30325,-2.67652 -0.50495,-0.38169 0.14771,-0.12109 2.02245,0.80777 2.63068,1.30326 6.04952,2.57193 6.03527,2.2396 -0.0107,-0.23905 -1.12824,-2.02331 -2.47442,-3.94909 -0.3502,-0.50094 -1.22287,-1.43734 -1.93929,-2.08088 -0.71639,-0.64353 -1.34118,-1.27013 -1.38839,-1.39246 -0.0473,-0.12231 -0.26556,-0.34101 -0.48521,-0.48595 -0.21966,-0.1449 -0.52371,-0.5463 -0.67567,-0.89194 -0.3579,-0.81401 -1.79778,-1.72931 -2.64748,-1.68289 -0.34001,0.0185 -0.86819,-0.0621 -1.17369,-0.17943 -0.63395,-0.24323 -1.90092,-1.371 -2.09355,-1.86352 -0.0709,-0.18165 -1.09802,-0.88327 -2.28217,-1.55924 -1.89651,-1.08261 -2.22461,-1.20572 -2.75389,-1.03339 -0.33048,0.10752 -0.74877,0.16185 -0.92958,0.12055 -0.52171,-0.11911 -1.32509,-0.89817 -1.56357,-1.5161 -0.1936,-0.50171 -0.39246,-0.61194 -1.73081,-0.95927 -0.83164,-0.21583 -2.52048,-0.73657 -3.75296,-1.15714 -1.84421,-0.62934 -2.46302,-0.94748 -3.49612,-1.79737 -1.91983,-1.57938 -2.65646,-1.94877 -3.41151,-1.71077 -0.84109,0.26512 -1.37886,0.0645 -1.63983,-0.61174 -0.59944,-1.55337 1.11121,-2.8673 1.97269,-1.51523 0.67917,1.06591 1.12811,1.54124 2.56508,2.71576 2.09658,1.7137 2.92479,2.14153 6.23116,3.21881 2.50297,0.81551 2.90071,0.88844 3.45365,0.63337 0.34371,-0.15854 0.83346,-0.24973 1.08834,-0.20264 0.58146,0.10732 1.29317,0.75074 1.54094,1.39279 0.12875,0.3336 0.72794,0.84527 1.87065,1.5974 1.93204,1.27161 1.89409,1.25281 1.87252,0.92747 -0.0268,-0.40376 0.39735,-0.55877 1.02017,-0.37283 l 0.58498,0.17463 -0.46,-0.89367 c -0.29416,-0.57157 -0.64901,-1.0014 -0.98444,-1.1925 -0.28844,-0.16436 -1.02342,-0.7056 -1.63324,-1.20278 -2.05962,-1.67915 -4.1659,-3.0321 -4.52977,-2.90956 -0.18965,0.064 -0.6071,0.0179 -0.92761,-0.10219 l -0.58276,-0.21818 -0.47256,0.68389 c -1.08923,1.57633 -1.61573,1.75107 -2.67356,0.88737 -0.27338,-0.22317 -0.57863,-0.35133 -0.67834,-0.28472 -0.2266,0.15127 -1.60065,-0.77144 -1.57057,-1.05469 0.0133,-0.12526 0.10989,-0.17788 0.2429,-0.13211 0.37659,0.12959 0.435,-0.0389 0.23984,-0.69153 -0.10354,-0.34606 -0.12017,-0.71304 -0.0372,-0.81549 0.083,-0.10241 0.81287,0.0274 1.62182,0.28864 0.80896,0.26118 1.55351,0.41967 1.65457,0.35218 0.18344,-0.12243 -0.0835,-0.74058 -0.98048,-2.27052 -0.26309,-0.44873 -0.28413,-0.60401 -0.11306,-0.83468 0.14075,-0.18984 0.2967,-0.21947 0.47225,-0.0896 0.14417,0.10655 0.79386,0.49848 1.44379,0.87109 0.64993,0.37263 1.58949,1.07576 2.08789,1.56253 0.8546,0.83467 1.24794,1.02275 1.04635,0.50033 -0.0491,-0.12735 -0.0296,-0.30579 0.0437,-0.39652 0.0863,-0.10731 -0.058,-0.32162 -0.41241,-0.61225 -0.2998,-0.24597 -0.6035,-0.59847 -0.67484,-0.78326 -0.0712,-0.18488 -0.45555,-0.46171 -0.85385,-0.61527 -0.47213,-0.18193 -0.78562,-0.43826 -0.90062,-0.73632 -0.097,-0.25148 -0.26253,-0.48761 -0.36778,-0.52474 -0.21619,-0.0763 -1.97208,-2.34369 -2.12814,-2.74811 -0.23228,-0.60195 0.70053,0.0745 1.7002,1.23229 0.56852,0.65866 1.20269,1.2442 1.40925,1.30119 0.20654,0.057 0.56066,0.3576 0.78691,0.66795 0.22625,0.31039 0.59067,0.6767 0.8098,0.81402 0.21917,0.13733 0.6065,0.52699 0.86075,0.86592 0.25425,0.33893 0.94162,1.00889 1.52747,1.4888 0.8414,0.68927 1.14221,0.83384 1.43188,0.68822 1.46985,-0.73887 7.67885,5.31294 6.35665,6.19572 -0.11575,0.0773 -0.21121,0.35939 -0.21216,0.62699 -9.9e-4,0.57033 0.36054,0.93341 1.60617,1.60795 0.43644,0.23639 1.49502,1.09111 2.35237,1.89942 1.72896,1.63004 3.32478,2.8987 4.03494,3.20771 0.96501,0.41991 3.9598,2.95258 4.67798,3.95615 0.32543,0.45473 0.86643,1.0059 1.20221,1.22483 0.33577,0.21893 0.52268,0.39436 0.41535,0.38987 -0.27688,-0.0121 -0.21511,0.0803 0.56677,0.84397 0.9959,0.97256 2.22542,1.53967 2.53237,1.16788 0.20929,-0.25349 0.25279,-0.226 0.3412,0.21571 0.0786,0.39278 0.23297,0.55151 0.68894,0.70846 0.32314,0.11127 0.68829,0.10327 0.8114,-0.0179 0.20904,-0.20559 0.0697,-0.61243 -2.10789,-6.1611 -2.70966,-6.90401 -4.00414,-9.8056 -4.3838,-9.82657 -0.17946,-0.0109 -0.20358,-0.0496 -0.0812,-0.13345 0.27779,-0.1905 -0.0997,-0.92631 -0.46873,-0.91346 -0.2036,0.008 -0.3505,-0.12056 -0.38001,-0.33005 -0.0661,-0.4703 -2.77227,-1.36418 -3.76493,-1.24369 -1.90086,0.23071 -2.29698,0.20606 -2.61142,-0.16253 -0.44464,-0.52123 -0.18622,-1.10509 0.68968,-1.55826 0.87358,-0.45196 1.52628,-0.3143 2.09216,0.4412 0.33521,0.44751 0.92073,0.81382 2.08182,1.30227 0.88851,0.37381 1.62224,0.65624 1.63053,0.62765 0.01,-0.0286 -0.52388,-1.172 -1.18256,-2.54086 -1.87142,-3.88918 -2.98714,-5.71942 -3.65706,-5.99913 -0.32748,-0.13673 -0.43924,-0.33349 -0.68145,-1.19981 -0.23377,-0.83603 -0.3913,-1.12525 -0.81531,-1.49692 -0.28906,-0.25339 -1.11398,-1.13722 -1.83316,-1.96412 -2.3653,-2.71959 -3.34333,-3.37842 -6.96248,-4.69018 -1.75581,-0.63639 -3.48362,-1.37882 -3.83957,-1.64984 -0.82059,-0.62484 -2.27333,-2.3649 -2.53031,-3.03087 -0.10802,-0.27984 -0.4507,-0.72763 -0.76155,-0.99506 -0.52005,-0.44739 -0.53666,-0.48133 -0.20794,-0.42471 0.19643,0.0342 -0.24923,-0.11886 -0.99053,-0.33937 -1.18489,-0.35244 -1.36916,-0.46853 -1.52468,-0.96064 -0.0975,-0.30788 -0.29506,-0.61633 -0.43948,-0.68546 -0.14431,-0.0694 -0.26857,-0.25358 -0.2759,-0.40988 -0.01,-0.18472 -0.26481,-0.28181 -0.73204,-0.27739 -0.3953,0.005 -0.70653,-0.0339 -0.69162,-0.0838 0.0488,-0.16273 2.23343,-0.55762 3.0285,-0.54744 0.90414,0.0121 0.92795,-0.1156 0.0862,-0.45955 -0.3323,-0.13584 -1.10827,-0.45215 -1.72437,-0.703 -1.5512,-0.63158 -2.40318,-1.16245 -4.08304,-2.54411 -2.22778,-1.83226 -2.52697,-2.01238 -2.91378,-1.75413 -0.44234,0.29533 -2.66181,-0.13897 -4.73943,-0.92717 -1.66405,-0.63143 -3.05203,-1.6679 -3.38375,-2.52674 -0.32318,-0.83701 0.60282,-1.96015 1.65554,-2.00794 0.52872,-0.0239 2.6665,0.85189 3.73618,1.5308 0.39059,0.24788 2.28357,1.80492 4.20664,3.46007 4.47998,3.85583 6.49714,5.01827 9.06597,5.22459 1.09071,0.0877 1.41504,-0.037 1.53722,-0.59098 0.11794,-0.53495 -0.65887,-1.31508 -2.29279,-2.30251 -0.741,-0.44781 -2.02266,-1.30293 -2.84811,-1.90025 -0.8935,-0.64655 -2.41215,-1.47239 -3.75279,-2.04072 -3.7207,-1.57736 -5.8467,-2.55 -6.24442,-2.8569 -0.89408,-0.68987 -2.36231,-1.32878 -3.07453,-1.3379 -1.43385,-0.0184 -3.18426,-1.18828 -3.67308,-2.45493 -0.39207,-1.01602 -0.21374,-1.4049 0.63779,-1.39086 0.78023,0.0134 0.73623,-0.0162 -1.41097,-0.93302 -0.79121,-0.33779 -1.61453,-0.55415 -1.8312,-0.4812 -1.5864,0.5342 -4.71775,-0.90563 -5.86321,-2.69602 -0.55739,-0.87122 -0.75099,-1.91516 -0.43431,-2.34218 0.28451,-0.38367 1.48492,-0.438 2.64341,-0.11959 0.80877,0.22226 0.98854,0.22153 0.74379,-0.002 -0.3612,-0.33138 -0.39865,-0.3525 1.1492,0.64818 0.48372,0.31273 0.90489,0.6339 0.93592,0.71372 0.031,0.0799 0.36677,0.36533 0.74608,0.63448 0.86179,0.61147 1.46876,1.33671 1.48949,1.77968 0.01,0.18667 -0.15115,0.5048 -0.35533,0.70694 -0.20416,0.20216 -0.33144,0.41118 -0.28287,0.46448 0.22601,0.24803 12.07849,5.08469 12.22331,4.98799 0.0397,-0.0265 0.16377,-0.38682 0.27558,-0.80058 0.24899,-0.92159 0.77956,-1.32493 1.64807,-1.25287 0.70402,0.0584 1.72135,0.85592 1.99438,1.56339 0.20672,0.5357 2.35381,2.2784 3.549,2.88058 l 0.76975,0.38781 0.11142,-0.52936 c 0.13365,-0.63516 0.29145,-0.64851 1.01119,-0.0857 0.6386,0.49942 1.33406,0.55435 1.46547,0.11573 0.0941,-0.31397 -0.94944,-1.2085 -2.98291,-2.55705 -0.62673,-0.41561 -1.17054,-0.83614 -1.2085,-0.9345 -0.11153,-0.28923 2.11117,1.05978 3.71279,2.2533 0.84338,0.62848 1.89884,1.22778 2.45379,1.3933 1.0488,0.31275 1.63444,0.13747 1.41767,-0.42422 -0.15868,-0.41117 -0.4729,-0.62875 -2.81602,-1.94997 -1.02534,-0.57815 -2.34379,-1.45515 -2.92996,-1.94888 l -1.06569,-0.89765 0.76298,0.31268 c 0.41966,0.17199 1.82793,0.94277 3.12955,1.71285 2.97662,1.76108 4.8211,2.53765 4.96101,2.0887 0.38036,-1.22058 -5.48004,-5.8917 -11.01905,-8.78294 -0.35635,-0.18597 -0.61069,-0.363 -0.56527,-0.39334 0.0808,-0.0539 2.65733,1.36808 5.00562,2.76236 1.70298,1.01111 3.45904,2.24422 5.35579,3.7608 0.91662,0.7329 1.71831,1.26127 1.78156,1.17414 0.19397,-0.26714 -0.17222,-0.72579 -1.16585,-1.46027 -0.52266,-0.38638 -1.26546,-0.95451 -1.65064,-1.26255 -0.38519,-0.30804 -1.15149,-0.90627 -1.70286,-1.32942 -1.28221,-0.98398 -1.31968,-1.0172 -1.05758,-0.93815 0.11657,0.0352 0.94641,0.59104 1.84398,1.2352 0.89759,0.64419 2.26971,1.57785 3.0492,2.07479 0.77947,0.49694 1.84069,1.17574 2.35826,1.50844 0.51757,0.33268 1.5166,0.83865 2.22008,1.12433 1.45609,0.59133 2.51729,1.40297 3.70419,2.83317 1.045,1.25916 2.61652,3.90309 3.57908,6.02144 0.4108,0.90406 0.8761,1.74948 1.03405,1.87876 0.36979,0.30265 1.50469,3.0423 1.42163,3.43179 -0.12386,0.58201 0.54328,1.31054 1.63576,1.78588 1.90234,0.8277 2.03809,1.23184 0.69902,2.08103 -0.59965,0.38029 -0.76605,0.55575 -0.69693,0.73489 0.17518,0.45392 2.07654,2.1243 2.66529,2.34149 0.69609,0.25679 1.42453,0.95391 1.67502,1.60303 0.0975,0.25212 0.56954,0.88781 1.04943,1.41262 3.58636,3.92214 7.46889,9.05321 9.76149,12.90058 0.57827,0.97042 1.65915,2.74596 2.40195,3.94564 0.7428,1.19968 1.64025,2.82023 1.99432,3.60119 l 0.64378,1.41995 z M 322.29669,132.6536 c -0.60372,-0.49362 -1.17272,-0.87933 -1.26442,-0.85714 -0.0991,0.024 -0.0456,0.35742 0.13216,0.82284 0.38245,1.00114 1.45635,1.75664 1.99023,1.40017 0.18888,-0.12615 0.32006,-0.28303 0.29156,-0.34879 -0.0284,-0.0659 -0.5458,-0.52344 -1.14954,-1.01708 z m -18.84344,-16.35533 c -0.97368,-0.9023 -4.71725,-2.43927 -4.85134,-1.99177 -0.0245,0.0814 0.3846,0.39803 0.90893,0.70328 0.79539,0.46306 3.18729,2.04287 4.16167,2.74869 0.30208,0.21883 0.70319,-0.20251 0.55597,-0.584 -0.0523,-0.1351 -0.401,-0.52938 -0.77523,-0.8762 z m -1.94213,0.98452 c -0.59385,-0.36766 -2.10669,-1.33229 -3.36187,-2.14361 -1.85251,-1.19742 -2.43307,-1.47708 -3.08358,-1.48544 -0.44078,-0.007 -1.49504,-0.30192 -2.34288,-0.6584 -0.8478,-0.3565 -2.24698,-0.92579 -3.10927,-1.26513 -0.86225,-0.33936 -2.42639,-1.00365 -3.47583,-1.47621 -1.04939,-0.47255 -2.26065,-1.00495 -2.69167,-1.18306 l -0.78365,-0.32384 0.55937,0.55145 c 0.30765,0.30327 0.6971,0.90382 0.86546,1.33459 0.25217,0.64518 0.47765,0.89294 1.2799,1.40628 0.5356,0.34272 1.25512,0.75903 1.59894,0.92512 0.34379,0.1661 1.15565,0.60907 1.80411,0.9844 0.64846,0.37532 2.08227,1.04777 3.18623,1.49432 1.10396,0.44654 2.20849,0.96128 2.45451,1.14385 0.36908,0.27388 0.50727,0.27261 0.78991,-0.008 0.29453,-0.29166 0.39118,-0.28238 0.68926,0.0662 0.2167,0.2534 0.29555,0.43952 0.21032,0.49643 -0.075,0.0502 0.0486,0.24808 0.27454,0.44001 0.22599,0.19193 0.45444,0.26519 0.50766,0.16276 0.0531,-0.10241 0.13867,-0.0934 0.19003,0.0205 0.23778,0.52712 0.45728,0.723 1.36218,1.21545 0.53372,0.29048 1.187,0.65295 1.45168,0.80554 0.8874,0.51146 1.79821,0.82085 2.00669,0.68165 0.5876,-0.3923 -0.83798,-1.89714 -3.27237,-3.45434 -0.73383,-0.46939 -1.343,-0.95743 -1.3537,-1.08451 -0.0107,-0.12707 0.92129,0.36848 2.0711,1.10127 2.51028,1.59984 3.04666,1.87613 3.30602,1.70295 0.36803,-0.24568 -0.049,-0.77976 -1.13309,-1.4509 z m 16.81396,44.72763 c -0.97099,-0.88196 -3.10691,-2.11621 -3.07852,-1.77895 0.0118,0.13703 0.40958,0.43059 0.88453,0.65234 0.47491,0.22184 1.05587,0.66701 1.29091,0.98947 0.38131,0.5231 2.1543,2.07641 2.27675,1.99467 0.14803,-0.0987 -0.7001,-1.24571 -1.37367,-1.85753 z m 2.16592,4.43721 c -0.15653,-0.24872 -0.34095,-0.41463 -0.4098,-0.36866 -0.13306,0.0888 0.26215,0.7474 0.61631,1.02722 0.25596,0.20223 0.17725,-0.0488 -0.20651,-0.65856 z m -1.67877,-2.8099 c -0.19854,-0.13315 -0.21593,-0.11609 -0.1258,0.12334 0.0576,0.15273 0.18507,0.28114 0.28353,0.28527 0.22657,0.009 0.14313,-0.20687 -0.15766,-0.40857 z m -2.94753,-4.40348 c -0.40717,-0.34989 -1.07362,-0.95273 -1.48097,-1.33964 -0.8276,-0.78599 -2.15331,-1.35339 -2.19716,-0.94036 -0.0153,0.14387 -0.32506,-0.11163 -0.70987,-0.58507 l -0.68276,-0.8402 0.0218,0.60208 c 0.0191,0.52948 0.10407,0.67112 0.70402,1.17423 0.71564,0.60005 1.68482,1.15143 1.41278,0.80373 -0.0872,-0.11138 -0.26893,-0.35997 -0.40396,-0.55241 -0.20272,-0.28891 -0.17727,-0.28801 0.14609,0.005 0.21536,0.19537 0.43736,0.46333 0.49336,0.59551 0.0559,0.13211 0.33881,0.23963 0.62849,0.23881 0.39754,-9.5e-4 0.57221,0.11585 0.71209,0.47884 0.10653,0.27627 0.29006,0.46076 0.43174,0.43418 0.13556,-0.0253 0.2918,0.0716 0.34735,0.21549 0.10546,0.27354 1.36261,1.12392 1.68112,1.13727 0.28906,0.0121 -0.27029,-0.71124 -1.10401,-1.42772 z m -14.8923,-32.39387 c -0.26757,0.0184 -0.56204,0.0432 -0.65436,0.0547 -0.0924,0.0121 0.24486,0.17531 0.74936,0.36349 0.5045,0.18817 0.96878,0.30776 1.03175,0.26571 0.2442,-0.16304 -0.66616,-0.71568 -1.12675,-0.68399 z m 14.97547,42.49344 c -0.0533,0.17817 0.26361,0.35646 0.43287,0.24347 0.0929,-0.062 0.0462,-0.14863 -0.12431,-0.23024 -0.15026,-0.0722 -0.28914,-0.078 -0.3085,-0.0134 z m -22.43,-56.7545 c -0.0533,0.17818 0.2636,0.35648 0.43284,0.2435 0.0929,-0.062 0.0462,-0.14864 -0.12433,-0.23025 -0.15022,-0.072 -0.28911,-0.078 -0.30849,-0.0134 z m 53.72303,59.55515 c -0.12892,0.37504 -0.21146,0.41092 -0.90483,0.39372 -0.41964,-0.0109 -1.75975,-0.3431 -2.97816,-0.73871 -1.21837,-0.39589 -2.74361,-0.75401 -3.3894,-0.79585 -1.95961,-0.12691 -4.17433,-1.23233 -4.58116,-2.28657 -0.65303,-1.69218 2.87087,-0.8898 5.52337,1.25768 1.06307,0.86063 3.92831,2.13878 4.88435,2.17883 0.33543,0.0134 0.74353,-0.0935 0.90691,-0.23891 0.24532,-0.21838 0.26085,-0.40139 0.0891,-1.05059 l -0.20778,-0.78615 0.39967,0.82695 c 0.31223,0.64604 0.36863,0.91721 0.25777,1.2396 z m -15.29646,-36.99553 c -0.077,0.0515 -0.18262,-0.017 -0.23464,-0.15165 -0.0519,-0.13479 -0.0317,-0.28721 0.0455,-0.33864 0.077,-0.0515 0.1826,0.017 0.23465,0.15161 0.0519,0.13479 0.0315,0.28722 -0.0455,0.33866 z m 18.20958,47.62072 c -0.10644,0.0258 -0.20914,-0.009 -0.22851,-0.0788 -0.058,-0.20698 0.14861,-0.29737 0.29009,-0.12692 0.0724,0.0873 0.0448,0.17978 -0.0615,0.20555 z M 343.103,165.04887 c -0.26191,0.0634 -0.69856,-0.25921 -0.63549,-0.46964 0.0284,-0.0949 0.16572,-0.19392 0.30512,-0.22005 0.29323,-0.0551 0.61669,0.62029 0.33037,0.68968 z m -3.35797,-2.84979 c -0.0771,0.0515 -0.17011,0.0157 -0.20684,-0.0796 -0.0366,-0.0952 0.0133,-0.1697 0.11213,-0.16556 0.0986,0.005 0.1916,0.0397 0.20683,0.0796 0.0153,0.0397 -0.0352,0.11416 -0.11235,0.16558 z m 7.57599,20.53084 c -0.39644,-0.10612 -1.1186,-0.60262 -1.20607,-0.82929 -0.0191,-0.0494 0.0581,-0.15185 0.17182,-0.22769 0.20871,-0.1394 0.72509,0.21802 1.20921,0.83689 l 0.26405,0.33754 z m -17.20113,-39.57449 c -0.25856,0.86296 -0.61414,1.17239 -1.11047,0.96634 -0.49437,-0.20528 -0.53553,-0.43142 -0.27877,-1.53182 0.26542,-1.13739 0.12934,-1.93279 -0.58481,-3.41856 -0.49714,-1.03432 -0.48481,-1.02357 0.62969,0.54966 1.47281,2.07905 1.63007,2.48079 1.34436,3.43438 z m 6.54318,16.99072 c -0.077,0.0515 -0.1684,0.0199 -0.20309,-0.0699 -0.0347,-0.09 -10e-6,-0.20549 0.077,-0.25693 0.077,-0.0515 0.16841,-0.0199 0.20311,0.0699 0.0347,0.0898 2e-5,0.2055 -0.0771,0.25694 z m -3.71186,-9.4425 c -0.2129,0.14209 -1.00897,-0.50869 -1.18723,-0.97063 -0.077,-0.19941 0.096,-0.17633 0.55193,0.0736 0.72532,0.39767 0.93652,0.69589 0.63532,0.89699 z m 7.59993,26.34116 c -0.10622,0.0258 -0.20913,-0.009 -0.2285,-0.0788 -0.058,-0.20696 0.14863,-0.29736 0.2901,-0.1269 0.0724,0.0873 0.0448,0.17978 -0.0615,0.20555 z m -7.62516,-19.54178 c -0.12994,0.0867 -0.27425,0.008 -0.35174,-0.19334 -0.15369,-0.39829 0.19528,-0.56049 0.42165,-0.19598 0.089,0.14342 0.0605,0.30224 -0.0699,0.38933 z m 6.5197,17.81258 c -0.14047,0.0547 -0.28042,0.0238 -0.31105,-0.0688 -0.0826,-0.24989 0.2479,-0.41452 0.41878,-0.2086 0.0924,0.11127 0.0518,0.21528 -0.10766,0.27749 z m -14.06731,-32.59357 c -0.0895,-0.002 -0.32531,-0.19694 -0.52404,-0.42926 -0.41888,-0.4898 -0.16748,-0.42488 0.34164,0.0882 0.18985,0.19132 0.27192,0.34479 0.1824,0.34104 z m 17.67414,46.24856 c -0.17653,0.11789 -0.67813,-0.15056 -0.62332,-0.33358 0.0788,-0.2631 0.54798,-0.26221 0.64966,9.5e-4 0.0531,0.13762 0.0413,0.28719 -0.0261,0.33232 z m -13.67012,-33.46536 c -0.12697,0.42387 -0.51783,0.40678 -0.6864,-0.0298 -0.18094,-0.46889 0.14581,-0.75833 0.51427,-0.45561 0.17212,0.14136 0.22803,0.29908 0.17212,0.48563 z m -4.27807,-10.25009 c -0.0771,0.0515 -0.16844,0.0199 -0.20312,-0.0699 -0.0347,-0.0898 -1e-5,-0.2055 0.077,-0.25695 0.077,-0.0515 0.16843,-0.0199 0.20312,0.0699 0.0347,0.0899 2e-5,0.20549 -0.077,0.25692 z m -19.12729,-43.99698 c -0.26109,0.87134 -1.45779,0.69527 -1.82999,-0.26923 -0.20714,-0.53676 -0.19219,-0.60036 0.2029,-0.86418 0.78553,-0.524457 1.89273,0.24679 1.62708,1.13341 z m 21.22754,64.47702 c -0.14373,0.27672 -0.44279,0.24589 -0.55995,-0.0578 -0.0553,-0.14312 0.0118,-0.29091 0.15833,-0.35053 0.30588,-0.12409 0.54952,0.12347 0.4016,0.40821 z M 323.1869,155.6429 c -0.10031,0.33508 -0.28672,0.33149 -0.41772,-0.008 -0.0734,-0.19019 -0.0469,-0.3609 0.0601,-0.38681 0.23538,-0.057 0.42915,0.15678 0.35784,0.39481 z m -21.43094,-54.91665 c -0.0985,-0.004 -0.19158,-0.0397 -0.20681,-0.0795 -0.0152,-0.0397 0.0352,-0.11417 0.11211,-0.16556 0.0771,-0.0515 0.1701,-0.0157 0.20684,0.0796 0.0367,0.0952 -0.0133,0.16973 -0.11212,0.16557 z m 19.55159,51.55469 c -0.10643,0.0258 -0.20914,-0.009 -0.22852,-0.0788 -0.058,-0.20695 0.14863,-0.29737 0.29009,-0.1269 0.0724,0.0872 0.0448,0.17978 -0.0617,0.20554 z m 5.71241,15.42833 c -0.69434,-0.44641 -1.41131,-1.00462 -1.3462,-1.04809 0.0854,-0.057 1.54897,0.97082 1.61092,1.13136 0.0246,0.0635 -0.0945,0.0261 -0.26474,-0.0832 z m -0.79622,-1.66789 c -0.24076,0.0583 -0.49933,-0.23619 -0.3153,-0.35901 0.0751,-0.0502 0.21997,-3.5e-4 0.32172,0.11067 0.11376,0.12423 0.1113,0.21982 -0.005,0.24833 z m -23.68596,-61.00714 c -0.077,0.0515 -0.18429,-0.0211 -0.23838,-0.16129 -0.0541,-0.14015 -0.0178,-0.2514 0.0808,-0.24726 0.0986,0.005 0.20571,0.0768 0.23836,0.16128 0.0326,0.0845 -0.003,0.19586 -0.0808,0.2473 z m 18.89184,49.86792 c -0.0771,0.0515 -0.18261,-0.017 -0.23467,-0.15161 -0.0519,-0.13479 -0.0316,-0.28721 0.0455,-0.33863 0.077,-0.0515 0.18261,0.017 0.23467,0.1516 0.0519,0.1348 0.0316,0.28722 -0.0455,0.33865 z m -19.73838,-50.46195 c -0.13587,0.0254 -0.4337,-0.12513 -0.66172,-0.33472 -0.22802,-0.2096 -0.95643,-0.55772 -1.6187,-0.77363 -0.66228,-0.2159 -1.22555,-0.44809 -1.25176,-0.51598 -0.0262,-0.0678 -0.66224,-0.25239 -1.41338,-0.40993 -0.75116,-0.15754 -1.62615,-0.36394 -1.94445,-0.45855 -0.3183,-0.0947 -0.84722,-0.1048 -1.17537,-0.0227 -0.32817,0.0821 -0.79959,0.11331 -1.04759,0.0694 -0.5671,-0.10077 -1.27281,0.36154 -1.70005,1.11355 -0.36483,0.64223 -0.29256,0.87815 0.65378,2.13375 0.4371,0.57997 0.47623,0.69627 0.36225,1.07668 -0.11912,0.39733 -0.17736,0.42249 -0.85377,0.36798 -1.07542,-0.0866 -1.97885,-0.83641 -2.46521,-2.04589 l -0.39445,-0.98093 0.59457,-1.09491 c 0.34225,-0.62963 0.71235,-1.12449 0.87155,-1.16463 0.15225,-0.0383 0.84358,-0.0322 1.53626,0.0134 0.83058,0.0551 1.33626,-0.009 1.48506,-0.18969 0.16514,-0.19993 0.50753,-0.17208 1.27627,0.10383 0.57784,0.20742 1.28251,0.34199 1.56592,0.29899 0.46764,-0.0709 1.67936,0.30902 2.21515,0.69453 0.11751,0.0845 0.52987,0.20287 0.91631,0.26288 0.38645,0.0599 0.74054,0.20748 0.78691,0.3276 0.0464,0.12008 0.5908,0.40129 1.20985,0.62481 1.08846,0.39298 1.5702,0.80663 1.05243,0.9037 z m 22.61897,60.66499 c -0.077,0.0515 -0.17012,0.0157 -0.20684,-0.0795 -0.0368,-0.0952 0.0133,-0.16972 0.11236,-0.16558 0.0986,0.005 0.19158,0.0398 0.20682,0.0796 0.0152,0.0396 -0.0352,0.11416 -0.11211,0.16556 z m -24.72172,-64.06223 c -0.077,0.0515 -0.16841,0.0199 -0.20311,-0.0699 -0.0347,-0.0899 -2e-5,-0.20549 0.077,-0.25692 0.0771,-0.0515 0.16843,-0.0199 0.20311,0.0699 0.0347,0.0897 1e-5,0.20551 -0.077,0.25695 z m 19.50206,54.1877 c -0.077,0.0515 -0.16842,0.0199 -0.2031,-0.0699 -0.0347,-0.0898 -4e-5,-0.20549 0.077,-0.25694 0.077,-0.0515 0.16841,-0.0199 0.20309,0.0699 0.0347,0.0898 3e-5,0.20549 -0.077,0.25692 z m 9.75884,25.95824 c -0.15778,0.10534 -1.92522,-1.00131 -1.87081,-1.17136 0.0332,-0.10404 0.18449,-0.10033 0.33609,0.009 0.15161,0.10851 0.5492,0.34136 0.88353,0.5174 0.56353,0.29672 0.80912,0.54024 0.65119,0.6457 z M 314.1192,148.1419 c -0.0866,0.28935 -0.27971,0.32773 -0.37723,0.0751 -0.0519,-0.13479 -0.0352,-0.28472 0.0373,-0.33311 0.1766,-0.11777 0.40158,0.0528 0.34007,0.25812 z M 294.65883,98.988322 c -0.0762,0.199064 -0.29727,0.396896 -0.53164,0.475811 -0.34168,0.115012 -0.4248,0.05278 -0.56045,-0.419471 -0.12298,-0.428011 -0.0902,-0.615973 0.14299,-0.823511 0.57704,-0.513534 1.2356,0.01876 0.94913,0.767171 z m -2.97131,-3.357754 c -0.077,0.05148 -0.16844,0.01985 -0.20313,-0.0699 -0.0347,-0.08987 -1e-5,-0.205498 0.0769,-0.256942 0.0771,-0.05148 0.16843,-0.01985 0.20311,0.0699 0.0347,0.08987 3e-5,0.205488 -0.077,0.256931 z m 19.66253,51.408672 c -0.0771,0.0515 -0.16841,0.0199 -0.20311,-0.0699 -0.0347,-0.0899 -10e-6,-0.20548 0.077,-0.25694 0.0771,-0.0515 0.16844,-0.0199 0.20312,0.0699 0.0347,0.0898 1e-5,0.2055 -0.077,0.25691 z m 12.6066,34.94997 c -0.0771,0.0515 -0.16842,0.0199 -0.20309,-0.0699 -0.0347,-0.0899 -5e-5,-0.20549 0.077,-0.25692 0.0771,-0.0515 0.16841,-0.0199 0.20309,0.0699 0.0347,0.0898 3e-5,0.20548 -0.077,0.25692 z m -15.37498,-37.92232 c -0.43461,0.44563 -0.8673,0.39727 -1.06661,-0.11948 -0.18124,-0.46965 0.0148,-0.98523 0.4528,-1.19159 0.26538,-0.12498 0.41234,-0.0383 0.65917,0.38888 0.29664,0.51339 0.29365,0.57439 -0.0453,0.92197 z m 8.78553,24.95453 c -0.0557,0.10698 -0.13113,0.11668 -0.16786,0.0215 -0.0369,-0.0952 -0.004,-0.21518 0.0734,-0.2666 0.0771,-0.0515 0.15258,-0.061 0.16785,-0.0215 0.0153,0.0397 -0.0175,0.15962 -0.0734,0.26658 z m -17.08341,-40.90159 c -0.0291,0.0196 -0.18906,-0.0354 -0.35546,-0.1223 -0.27424,-0.14283 -0.27148,-0.15199 0.0291,-0.0971 0.31563,0.0579 0.44162,0.14238 0.32637,0.21938 z m -0.99422,-0.4666 c -0.21685,-0.0598 -0.40843,-0.14551 -0.42578,-0.1905 -0.0172,-0.0449 0.14594,-0.0328 0.36271,0.0272 0.21683,0.0598 0.40845,0.1455 0.42577,0.19051 0.0172,0.0449 -0.14594,0.0329 -0.3627,-0.0272 z m 6.4037,16.45442 c -0.0867,0.28933 -0.27973,0.32773 -0.37723,0.0751 -0.0519,-0.13481 -0.0352,-0.28471 0.0373,-0.3331 0.1766,-0.11801 0.40157,0.0528 0.34006,0.25811 z m -7.24199,-16.90202 c -0.23633,-0.0571 -0.98321,-0.36725 -1.65974,-0.68922 -0.67653,-0.32197 -1.36073,-0.55142 -1.52048,-0.50985 -0.15971,0.0414 -0.47788,-0.0836 -0.70699,-0.27827 -0.29423,-0.2499 -0.42538,-0.27111 -0.4465,-0.0723 -0.0231,0.21737 -0.19443,0.28309 -0.75159,0.28834 -0.39693,0.005 -0.74484,-0.0531 -0.77315,-0.12646 -0.0283,-0.0733 -0.21101,-0.027 -0.40607,0.10339 -0.37674,0.25152 -1.58257,0.49544 -1.52667,0.30878 0.0182,-0.0608 0.34222,-0.22443 0.71993,-0.36351 0.37771,-0.13911 0.87896,-0.4065 1.11386,-0.59424 0.34174,-0.27312 0.60767,-0.28929 1.33024,-0.081 0.53695,0.15481 0.97191,0.16752 1.07288,0.0312 0.10482,-0.14149 0.33411,-0.1167 0.60028,0.065 0.23678,0.16161 0.54297,0.29898 0.68041,0.30519 0.18771,0.009 0.21983,0.0693 0.12904,0.24382 -0.082,0.15806 0.31117,0.43131 1.22671,0.85259 0.74117,0.34097 1.15415,0.57336 0.91783,0.51628 z m 3.64559,11.82999 c -0.0771,0.0515 -0.1843,-0.0211 -0.23837,-0.16127 -0.0541,-0.14016 -0.0178,-0.25143 0.0808,-0.24731 0.0984,0.005 0.2057,0.0768 0.23835,0.16129 0.0326,0.0847 -0.003,0.19586 -0.0808,0.24729 z m 8.47767,24.6357 c -0.0568,0.10884 -0.1758,0.14654 -0.26491,0.0835 -0.23003,-0.16242 -0.11036,-0.44622 0.15038,-0.35649 0.14595,0.0502 0.18356,0.14 0.11457,0.27286 z m -5.5475,-11.79387 c -0.45204,0.30184 -1.50416,-0.48791 -1.85827,-1.39487 -0.19918,-0.51012 0.50486,-0.38578 1.17417,0.20738 0.83524,0.74017 0.97936,0.99037 0.68409,1.18752 z m 13.62243,38.33753 c -0.25079,0.0609 -0.43006,-0.27935 -0.22713,-0.43094 0.0752,-0.0562 0.20582,0.007 0.29038,0.13792 0.096,0.1502 0.0723,0.25996 -0.0631,0.29279 z m -19.33789,-49.86014 c -0.079,0.264 -0.75983,-0.009 -0.89477,-0.35794 -0.10514,-0.27228 -0.0782,-0.31149 0.17499,-0.25605 0.39947,0.0876 0.78021,0.41225 0.71977,0.61398 z m 13.06302,34.15801 c -0.0291,0.0195 -0.17576,-0.0237 -0.32593,-0.0953 -0.22833,-0.10922 -0.22885,-0.13896 -0.003,-0.18125 0.23024,-0.0431 0.48626,0.17188 0.32935,0.27665 z m -7.24803,-18.49053 c -0.10021,-0.005 -0.17214,-0.10034 -0.16008,-0.21356 0.0324,-0.30682 0.13291,-0.32067 0.24371,-0.0336 0.0541,0.14016 0.0164,0.25137 -0.0837,0.24717 z M 295.687,133.20525 c -0.18078,-0.0621 -0.31695,-0.22388 -0.30259,-0.3592 0.0384,-0.3601 0.33811,-0.28739 0.49538,0.12007 0.1252,0.32452 0.11013,0.34334 -0.19278,0.23907 z m 10.72013,27.98791 c -0.0953,0.023 -0.20011,-0.0278 -0.23304,-0.11333 -0.033,-0.0854 -0.003,-0.22683 0.068,-0.31434 0.0704,-0.0876 0.17522,-0.0364 0.23306,0.11319 0.0578,0.14982 0.0272,0.29126 -0.068,0.31435 z m 10.31604,27.22499 c -0.2508,0.0607 -0.4301,-0.27936 -0.22715,-0.43094 0.0752,-0.0562 0.20581,0.007 0.29039,0.13792 0.096,0.15021 0.0723,0.25996 -0.0631,0.2928 z m -16.99297,-39.4267 c -0.25496,0.0621 -0.81707,-0.57644 -0.73841,-0.83893 0.0777,-0.25977 0.66808,0.0859 0.82033,0.48063 0.0674,0.17463 0.0318,0.33059 -0.0821,0.35826 z m 2.5594,6.97453 c -0.077,0.0515 -0.16843,0.0198 -0.20311,-0.0699 -0.0347,-0.0899 -2e-5,-0.2055 0.0769,-0.25694 0.0771,-0.0515 0.16844,-0.0199 0.20311,0.0699 0.0347,0.0899 2e-5,0.2055 -0.077,0.25693 z m -1.07743,0.10284 c -0.24136,0.16114 -0.69853,-0.0332 -0.62844,-0.26732 0.0886,-0.29546 0.26609,-0.32501 0.55026,-0.0915 0.21549,0.17704 0.23264,0.25576 0.0782,0.35889 z m -11.39464,-29.5964 c -0.12978,0.0883 -0.30317,0.11307 -0.38546,0.0551 -0.18936,-0.13375 -0.004,-0.25747 0.35012,-0.23377 0.23372,0.0157 0.2386,0.0405 0.0356,0.1788 z m 4.37089,12.29412 c -0.23672,0.15804 -0.88086,-0.44771 -0.97405,-0.91596 -0.0553,-0.27781 -0.0118,-0.28788 0.31465,-0.0722 0.60884,0.40275 0.89467,0.83107 0.6594,0.98815 z m -3.53617,-9.35428 c -0.0686,0.0459 -0.20821,-0.008 -0.30984,-0.11827 -0.26379,-0.28806 -0.26261,-0.32273 0.0133,-0.37436 0.26338,-0.0494 0.50601,0.35306 0.29701,0.49262 z m 19.77369,51.74553 c -0.0771,0.0515 -0.16841,0.0199 -0.20313,-0.0699 -0.0347,-0.0898 -6e-5,-0.20551 0.0771,-0.25693 0.077,-0.0515 0.16843,-0.0198 0.20312,0.0699 0.0347,0.0899 10e-6,0.2055 -0.077,0.25694 z m -20.6818,-52.83484 c 0.0133,0.39913 -0.35019,0.53315 -0.74281,0.2741 -0.19837,-0.13093 -0.59852,-0.5463 -0.88924,-0.92311 -0.59232,-0.76779 -1.14101,-0.81808 -1.92536,-0.17641 -0.38118,0.31185 -0.58896,0.30787 -1.54958,-0.0296 -0.61012,-0.21437 -1.34785,-0.6172 -1.63936,-0.89518 l -0.53004,-0.50544 0.17288,-0.64787 c 0.14002,-0.52492 0.20661,-0.61105 0.35061,-0.45382 0.0978,0.10667 0.29715,0.11441 0.44307,0.017 0.14594,-0.0974 0.69822,-0.008 1.22732,0.19941 0.7724,0.30235 1.00635,0.49145 1.18699,0.9596 0.1835,0.47545 0.30262,0.56817 0.64574,0.50256 0.23142,-0.0444 0.62164,-0.214 0.86722,-0.37718 0.34709,-0.23071 0.55944,-0.22378 0.9542,0.0311 0.74015,0.47751 1.40882,1.42556 1.42836,2.02513 z m 11.19987,29.77468 c -0.11212,0.0751 -0.29633,0.008 -0.40919,-0.14982 -0.153,-0.2133 -0.14091,-0.31224 0.0474,-0.38901 0.31835,-0.12974 0.64169,0.35191 0.36169,0.53883 z m -0.78681,-1.95219 c -0.15322,0.10503 -0.57027,0.25665 -0.92679,0.33693 -0.74391,0.16753 -0.8439,0.28604 -0.37693,0.44679 0.49385,0.16999 0.46875,0.32586 -0.0327,0.20322 -1.01876,-0.24919 -1.66375,-0.22892 -2.00884,0.063 -0.5689,0.48144 -0.28303,1.17166 0.76795,1.85418 0.92785,0.60253 1.57669,1.47456 1.25633,1.68844 -0.30172,0.20144 -2.19715,-0.58689 -3.22456,-1.34111 -0.52416,-0.38481 -1.34296,-0.81768 -1.81953,-0.96192 -0.4766,-0.14433 -0.89942,-0.34754 -0.93961,-0.4517 -0.16371,-0.4242 0.47555,-0.49535 1.41945,-0.15798 1.06654,0.3812 1.29735,0.34364 1.4243,-0.23191 0.0438,-0.19887 0.19809,-0.44053 0.3427,-0.53709 0.36892,-0.24632 0.20666,-0.53086 -0.44101,-0.77334 -0.35368,-0.13242 -0.69769,-0.11068 -0.95383,0.0604 -0.7066,0.47175 -1.98147,-0.42015 -2.02821,-1.41897 -0.0414,-0.88781 1.66548,-0.54097 2.03371,0.41326 0.20229,0.52422 0.45559,0.6352 1.83997,0.80616 0.46647,0.0578 0.9491,-0.0221 1.21685,-0.20081 0.31285,-0.20886 0.61599,-0.22868 1.02758,-0.0673 0.3211,0.12601 0.83536,0.19521 1.14279,0.15388 0.39361,-0.0529 0.47657,-0.0187 0.28039,0.11572 z M 273.65915,87.936541 c -0.12845,0.0857 -0.24132,0.06173 -0.25106,-0.05329 -0.0107,-0.115007 0.0423,-0.249146 0.1154,-0.298007 0.0732,-0.04883 0.18614,-0.02483 0.25107,0.05316 0.0649,0.07824 0.0133,0.212294 -0.11539,0.298007 z m 37.64427,98.184689 c -0.0686,0.0459 -0.20819,-0.008 -0.30983,-0.11826 -0.28576,-0.31201 -0.27762,-0.38388 0.0358,-0.31527 0.31983,0.07 0.46794,0.30419 0.27422,0.43353 z m -1.7357,-0.79482 c -0.21752,-0.0599 -0.37877,-0.16483 -0.35834,-0.23293 0.0517,-0.17267 0.60931,-0.0323 0.68867,0.17333 0.0358,0.0928 -0.11295,0.11959 -0.33033,0.0597 z m -23.51528,-60.97027 c -0.0517,0.0997 -0.16251,0.13271 -0.24614,0.0736 -0.0836,-0.0591 -0.0539,-0.17296 0.0662,-0.25313 0.24599,-0.16423 0.32006,-0.0903 0.17986,0.17942 z m 13.47054,38.18428 c -0.5697,0.38034 -6.25994,-1.87899 -7.69635,-3.05591 -0.428,-0.35068 -1.27013,-1.002 -1.8714,-1.44732 -1.09855,-0.81371 -1.279,-1.00116 -1.08265,-1.12473 0.0584,-0.0368 0.52114,0.31771 1.02822,0.78781 0.79894,0.7407 1.3572,1.00453 4.18475,1.97791 3.61106,1.24308 5.49716,2.05305 5.63947,2.4218 0.0533,0.13823 -0.0336,0.32803 -0.20201,0.44044 z M 270.27627,86.701147 c -0.077,0.05148 -0.18262,-0.017 -0.23464,-0.151643 -0.0519,-0.134803 -0.0315,-0.287207 0.0455,-0.338646 0.077,-0.05148 0.1826,0.017 0.23464,0.151655 0.0519,0.134791 0.0316,0.287206 -0.0455,0.338622 z m 36.59309,97.601953 c -0.56268,-0.25582 -0.98186,-0.32074 -1.18725,-0.18363 -0.17463,0.1167 -0.48618,0.14195 -0.69229,0.0563 -0.32425,-0.13464 -0.37683,-0.23801 -0.39007,-0.76722 -0.01,-0.33639 0.0292,-0.64125 0.0834,-0.67748 0.23197,-0.15486 1.0128,0.31829 1.1616,0.70387 0.10907,0.28248 0.41995,0.49074 0.95012,0.63644 0.43344,0.11922 0.82324,0.30894 0.86619,0.42188 0.0429,0.11297 -0.31332,0.0273 -0.79165,-0.19025 z m -24.15217,-61.30815 c -0.17894,0.11946 -0.93461,-0.41379 -0.87352,-0.61643 0.0283,-0.0939 0.23905,-0.0775 0.46837,0.0362 0.44772,0.22215 0.60472,0.44699 0.40515,0.58024 z m -1.45775,-0.72235 c -0.22083,-0.0503 -0.49719,-0.0277 -0.61416,0.0504 -0.1169,0.0781 -0.32314,0.0411 -0.45822,-0.0824 -0.38697,-0.35344 -2.62099,-0.72069 -3.74987,-0.61641 -1.43532,0.13258 -2.51178,-0.17377 -3.36111,-0.95659 -0.87384,-0.8054 -0.84997,-1.03338 0.18015,-1.71903 1.40046,-0.93236 3.16488,-0.65338 5.82813,0.92146 1.64201,0.97098 2.09424,1.41633 1.87219,1.84367 -0.10956,0.21067 -0.054,0.29966 0.28425,0.45613 l 0.42028,0.19439 z M 265.62199,85.45552 c -0.26166,0.106692 -1.24347,-0.507842 -1.17523,-0.735568 0.0541,-0.180516 1.27214,0.212668 1.3594,0.438814 0.0406,0.105361 -0.0423,0.238876 -0.18418,0.296742 z m 4.35329,12.956298 c -0.0358,0.02389 -0.43805,-0.169968 -0.89418,-0.430638 -0.51092,-0.291983 -0.93578,-0.402895 -1.10659,-0.288842 -0.37424,0.249885 -2.12222,-0.408096 -3.48893,-1.313487 -1.00033,-0.662606 -2.35295,-2.02649 -2.57155,-2.592994 -0.19286,-0.49977 0.45862,-0.457957 2.2311,0.143129 1.48689,0.504275 2.10471,0.832835 2.90637,1.545531 0.76812,0.682923 1.04386,1.03926 1.12321,1.451545 0.0579,0.300521 0.18207,0.549632 0.27604,0.55358 0.20649,0.0087 1.61647,0.870754 1.52453,0.932143 z m 21.21343,56.699892 c -0.11912,0.0288 -0.28905,-0.064 -0.37747,-0.20637 -0.10288,-0.16566 -0.0826,-0.27793 0.0558,-0.31158 0.11912,-0.0288 0.28904,0.064 0.37747,0.20638 0.10289,0.16564 0.0826,0.27792 -0.0558,0.31155 z M 263.79912,84.607187 c -0.24078,0.05835 -0.49935,-0.236188 -0.31531,-0.359019 0.0751,-0.05016 0.21997,-3.39e-4 0.32171,0.110667 0.11376,0.12423 0.1113,0.219828 -0.005,0.248363 z m 19.00572,49.838943 c -0.2228,0.14879 -1.73594,-0.56324 -2.42261,-1.13988 -0.49902,-0.4191 -1.47057,-1.81114 -1.4433,-2.06799 0.0204,-0.19141 1.02307,-0.13184 1.44471,0.0857 0.13795,0.0711 0.51809,0.46477 0.84489,0.87462 0.32679,0.40984 0.81798,0.9389 1.09154,1.17566 0.59805,0.51763 0.7643,0.88522 0.48477,1.07186 z m 2.75855,8.22922 c -0.27398,0.18293 -1.44077,-0.60873 -1.34894,-0.91522 0.0681,-0.22759 1.25462,0.28513 1.37366,0.59366 0.0516,0.13346 0.0402,0.27812 -0.0247,0.32158 z M 262.91388,84.423175 c -0.0752,0.05014 -0.21997,3.49e-4 -0.32172,-0.110669 -0.11376,-0.12423 -0.1113,-0.219816 0.005,-0.248339 0.24077,-0.05835 0.49933,0.236188 0.31527,0.359032 z m 20.58239,54.661835 c -0.51728,0.21084 -1.85436,-0.98501 -1.4232,-1.27288 0.18387,-0.12275 1.47951,0.63618 1.59441,0.93392 0.0507,0.13182 -0.0234,0.27872 -0.17119,0.33898 z m 5.45961,16.94561 c -0.22606,0.15095 -0.81339,-0.2114 -0.96048,-0.59253 l -0.14787,-0.38331 0.49826,0.15004 c 0.47685,0.14356 0.85842,0.66005 0.61016,0.8258 z m -10.16326,-19.4195 c -0.0986,-0.005 -0.22159,-0.1179 -0.27363,-0.25264 -0.0519,-0.1348 -0.0149,-0.24176 0.0846,-0.23764 0.0987,0.005 0.22159,0.11779 0.27362,0.25263 0.0519,0.13479 0.0148,0.24177 -0.0846,0.23764 z m -1.51887,-2.58271 c -0.0745,0.0495 -0.25937,-0.0121 -0.41115,-0.13658 -0.21614,-0.17755 -0.23265,-0.25574 -0.076,-0.36029 0.11014,-0.0736 0.28318,-0.0427 0.3848,0.0681 0.2481,0.27094 0.26056,0.32305 0.10236,0.42867 z m -5.48794,-13.29218 c -0.0986,-0.005 -0.19159,-0.0397 -0.20682,-0.0796 -0.0152,-0.0397 0.0352,-0.11416 0.11211,-0.16559 0.077,-0.0515 0.17011,-0.0157 0.20683,0.0796 0.0368,0.0952 -0.0133,0.16971 -0.11212,0.16556 z m 5.11736,15.07902 c -0.15287,0.29418 -0.38604,0.2303 -0.76138,-0.2086 -0.3745,-0.43793 -0.28086,-0.61679 0.2071,-0.39555 0.51801,0.23464 0.66365,0.39366 0.55428,0.60412 z m 3.57267,12.00388 c -0.0985,-0.005 -0.1916,-0.0397 -0.20685,-0.0795 -0.0152,-0.0397 0.0352,-0.11417 0.11212,-0.16557 0.0771,-0.0515 0.1701,-0.0157 0.20684,0.0796 0.0368,0.0952 -0.0133,0.16971 -0.11211,0.16557 z m -1.84579,-3.84169 c -0.11633,0.028 -0.2762,-0.0272 -0.35546,-0.12231 -0.0824,-0.0992 -0.0534,-0.19554 0.0672,-0.22481 0.11634,-0.0281 0.27621,0.0272 0.35545,0.12229 0.0824,0.0992 0.0536,0.19554 -0.0672,0.22483 z m -9.74488,-23.6723 c -0.16131,-0.0353 -0.27739,-0.11705 -0.25801,-0.18178 0.0533,-0.17818 0.40797,-0.12527 0.48417,0.0722 0.0417,0.10841 -0.0434,0.14963 -0.22615,0.10946 z m 22.15503,58.99753 c -0.0771,0.0515 -0.16845,0.0199 -0.20312,-0.0699 -0.0347,-0.0898 -2e-5,-0.20549 0.077,-0.25694 0.0771,-0.0515 0.16845,-0.0199 0.20311,0.0699 0.0347,0.0899 2e-5,0.20547 -0.077,0.25692 z M 257.02002,92.057807 c -0.077,0.05148 -0.1826,-0.01702 -0.23464,-0.151646 -0.0519,-0.134796 -0.0316,-0.287227 0.0455,-0.338644 0.0771,-0.05148 0.18259,0.017 0.23463,0.151653 0.0519,0.134796 0.0315,0.287205 -0.0455,0.338637 z m 11.67084,31.155863 c -0.0985,-0.005 -0.19159,-0.0397 -0.20684,-0.0796 -0.0152,-0.0397 0.0352,-0.11416 0.11237,-0.16557 0.0771,-0.0515 0.17008,-0.0157 0.20681,0.0795 0.0369,0.0952 -0.0133,0.1697 -0.11211,0.16555 z m 20.96332,55.37015 c -0.25085,0.16746 -0.77123,-0.0581 -0.69798,-0.30241 0.0642,-0.21434 0.59279,-0.20752 0.77323,0.0109 0.0711,0.0857 0.0373,0.21733 -0.0752,0.29246 z m -1.30115,-2.2509 c -0.36084,0.18209 -0.38342,0.25208 -0.20544,0.63675 0.17577,0.37983 0.1598,0.43357 -0.13186,0.4437 -0.24946,0.009 -0.35632,-0.1155 -0.43028,-0.49956 -0.0782,-0.40604 -0.19032,-0.51795 -0.54569,-0.54455 -0.46311,-0.0347 -3.11638,-0.58154 -3.93821,-0.81166 -0.34362,-0.0962 -0.4447,-0.20683 -0.38165,-0.41725 0.0631,-0.21048 0.2236,-0.26199 0.60607,-0.19444 0.28622,0.0503 1.11868,0.10208 1.85005,0.11453 1.50215,0.0257 3.34899,0.46296 3.48919,0.8262 0.0646,0.16746 -0.0311,0.30453 -0.31216,0.44626 z m 0.40378,1.61687 c -0.077,0.0515 -0.1701,0.0157 -0.20683,-0.0796 -0.0367,-0.0952 0.0133,-0.16971 0.11212,-0.16558 0.0986,0.005 0.19158,0.0398 0.20682,0.0796 0.0152,0.0397 -0.0352,0.11416 -0.11235,0.16559 z m -13.69595,-34.8393 c -0.23367,0.15602 -1.07356,-0.23854 -1.19885,-0.56324 -0.1323,-0.3427 0.23501,-0.49051 0.73569,-0.29607 0.51224,0.19888 0.761,0.66045 0.46317,0.85931 z m -9.15901,-23.0702 c -0.0771,0.0515 -0.20738,0.0459 -0.28967,-0.0121 -0.0823,-0.0581 -0.0865,-0.14773 -0.01,-0.19914 0.077,-0.0515 0.20737,-0.0459 0.28969,0.0121 0.0823,0.0581 0.0865,0.14773 0.01,0.19915 z m 7.07005,22.56806 c -0.10525,0.0256 -0.24996,-0.0242 -0.32167,-0.11079 -0.0801,-0.0965 -0.0301,-0.1759 0.12965,-0.2059 0.29855,-0.056 0.48188,0.24645 0.19198,0.3167 z m 6.35469,24.16751 c -0.0816,0.0545 -0.1378,-3.8e-4 -0.12491,-0.12215 0.0133,-0.12169 0.0513,-0.23976 0.0853,-0.26244 0.0339,-0.0228 0.0901,0.0323 0.12474,0.12214 0.0347,0.0899 -0.003,0.20798 -0.0852,0.26244 z m -18.76164,-47.49259 c -0.16133,-0.0353 -0.27736,-0.11705 -0.25802,-0.18179 0.0533,-0.17819 0.40796,-0.12526 0.48417,0.0722 0.0417,0.10829 -0.0434,0.14964 -0.22615,0.10969 z m -0.88703,-0.2258 c -0.47952,0.32016 -2.33187,-0.13926 -2.51922,-0.62474 -0.10767,-0.27903 -0.0706,-0.29998 0.61492,-0.34627 0.40128,-0.0272 0.97599,0.0245 1.27723,0.1149 0.54429,0.16301 0.91243,0.66568 0.62707,0.8562 z"
       id="path4116" />
  </g>
</svg>
